%TF.GenerationSoftware,KiCad,Pcbnew,9.0.2*%
%TF.CreationDate,2025-06-08T01:22:44+05:30*%
%TF.ProjectId,AQEYE-SB-D1,41514559-452d-4534-922d-44312e6b6963,0.1*%
%TF.SameCoordinates,Original*%
%TF.FileFunction,Paste,Top*%
%TF.FilePolarity,Positive*%
%FSLAX46Y46*%
G04 Gerber Fmt 4.6, Leading zero omitted, Abs format (unit mm)*
G04 Created by KiCad (PCBNEW 9.0.2) date 2025-06-08 01:22:44*
%MOMM*%
%LPD*%
G01*
G04 APERTURE LIST*
G04 Aperture macros list*
%AMRoundRect*
0 Rectangle with rounded corners*
0 $1 Rounding radius*
0 $2 $3 $4 $5 $6 $7 $8 $9 X,Y pos of 4 corners*
0 Add a 4 corners polygon primitive as box body*
4,1,4,$2,$3,$4,$5,$6,$7,$8,$9,$2,$3,0*
0 Add four circle primitives for the rounded corners*
1,1,$1+$1,$2,$3*
1,1,$1+$1,$4,$5*
1,1,$1+$1,$6,$7*
1,1,$1+$1,$8,$9*
0 Add four rect primitives between the rounded corners*
20,1,$1+$1,$2,$3,$4,$5,0*
20,1,$1+$1,$4,$5,$6,$7,0*
20,1,$1+$1,$6,$7,$8,$9,0*
20,1,$1+$1,$8,$9,$2,$3,0*%
%AMOutline5P*
0 Free polygon, 5 corners , with rotation*
0 The origin of the aperture is its center*
0 number of corners: always 5*
0 $1 to $10 corner X, Y*
0 $11 Rotation angle, in degrees counterclockwise*
0 create outline with 5 corners*
4,1,5,$1,$2,$3,$4,$5,$6,$7,$8,$9,$10,$1,$2,$11*%
%AMOutline6P*
0 Free polygon, 6 corners , with rotation*
0 The origin of the aperture is its center*
0 number of corners: always 6*
0 $1 to $12 corner X, Y*
0 $13 Rotation angle, in degrees counterclockwise*
0 create outline with 6 corners*
4,1,6,$1,$2,$3,$4,$5,$6,$7,$8,$9,$10,$11,$12,$1,$2,$13*%
%AMOutline7P*
0 Free polygon, 7 corners , with rotation*
0 The origin of the aperture is its center*
0 number of corners: always 7*
0 $1 to $14 corner X, Y*
0 $15 Rotation angle, in degrees counterclockwise*
0 create outline with 7 corners*
4,1,7,$1,$2,$3,$4,$5,$6,$7,$8,$9,$10,$11,$12,$13,$14,$1,$2,$15*%
%AMOutline8P*
0 Free polygon, 8 corners , with rotation*
0 The origin of the aperture is its center*
0 number of corners: always 8*
0 $1 to $16 corner X, Y*
0 $17 Rotation angle, in degrees counterclockwise*
0 create outline with 8 corners*
4,1,8,$1,$2,$3,$4,$5,$6,$7,$8,$9,$10,$11,$12,$13,$14,$15,$16,$1,$2,$17*%
G04 Aperture macros list end*
%ADD10RoundRect,0.135000X0.135000X0.185000X-0.135000X0.185000X-0.135000X-0.185000X0.135000X-0.185000X0*%
%ADD11RoundRect,0.218750X-0.218750X-0.256250X0.218750X-0.256250X0.218750X0.256250X-0.218750X0.256250X0*%
%ADD12RoundRect,0.135000X0.185000X-0.135000X0.185000X0.135000X-0.185000X0.135000X-0.185000X-0.135000X0*%
%ADD13RoundRect,0.135000X-0.135000X-0.185000X0.135000X-0.185000X0.135000X0.185000X-0.135000X0.185000X0*%
%ADD14RoundRect,0.140000X-0.140000X-0.170000X0.140000X-0.170000X0.140000X0.170000X-0.140000X0.170000X0*%
%ADD15RoundRect,0.225000X0.250000X-0.225000X0.250000X0.225000X-0.250000X0.225000X-0.250000X-0.225000X0*%
%ADD16RoundRect,0.250001X-0.714999X0.714999X-0.714999X-0.714999X0.714999X-0.714999X0.714999X0.714999X0*%
%ADD17RoundRect,0.212500X-0.212500X0.737500X-0.212500X-0.737500X0.212500X-0.737500X0.212500X0.737500X0*%
%ADD18RoundRect,0.212500X-0.737500X0.212500X-0.737500X-0.212500X0.737500X-0.212500X0.737500X0.212500X0*%
%ADD19RoundRect,0.150000X0.150000X0.625000X-0.150000X0.625000X-0.150000X-0.625000X0.150000X-0.625000X0*%
%ADD20RoundRect,0.250000X0.350000X0.650000X-0.350000X0.650000X-0.350000X-0.650000X0.350000X-0.650000X0*%
%ADD21RoundRect,0.150000X-0.512500X-0.150000X0.512500X-0.150000X0.512500X0.150000X-0.512500X0.150000X0*%
%ADD22RoundRect,0.140000X-0.170000X0.140000X-0.170000X-0.140000X0.170000X-0.140000X0.170000X0.140000X0*%
%ADD23RoundRect,0.200000X0.200000X0.600000X-0.200000X0.600000X-0.200000X-0.600000X0.200000X-0.600000X0*%
%ADD24RoundRect,0.250001X0.799999X1.249999X-0.799999X1.249999X-0.799999X-1.249999X0.799999X-1.249999X0*%
%ADD25R,0.650000X0.400000*%
%ADD26R,0.550000X0.400000*%
%ADD27Outline5P,-0.625000X0.537500X-0.312500X0.850000X0.625000X0.850000X0.625000X-0.850000X-0.625000X-0.850000X0.000000*%
%ADD28RoundRect,0.225000X0.225000X0.250000X-0.225000X0.250000X-0.225000X-0.250000X0.225000X-0.250000X0*%
%ADD29RoundRect,0.225000X-0.250000X0.225000X-0.250000X-0.225000X0.250000X-0.225000X0.250000X0.225000X0*%
%ADD30R,1.700000X5.700000*%
%ADD31RoundRect,0.140000X0.170000X-0.140000X0.170000X0.140000X-0.170000X0.140000X-0.170000X-0.140000X0*%
%ADD32RoundRect,0.140000X0.140000X0.170000X-0.140000X0.170000X-0.140000X-0.170000X0.140000X-0.170000X0*%
%ADD33RoundRect,0.150000X-0.150000X-0.625000X0.150000X-0.625000X0.150000X0.625000X-0.150000X0.625000X0*%
%ADD34RoundRect,0.208333X-0.291667X-0.691667X0.291667X-0.691667X0.291667X0.691667X-0.291667X0.691667X0*%
%ADD35R,0.700000X0.340000*%
G04 APERTURE END LIST*
D10*
X25854999Y22290000D03*
X24835001Y22290000D03*
D11*
X3627500Y21775000D03*
X5202500Y21775000D03*
D12*
X8385000Y18295001D03*
X8385000Y19314999D03*
D13*
X48845001Y28875000D03*
X49864999Y28875000D03*
D14*
X29525000Y8745000D03*
X30485000Y8745000D03*
D13*
X24905001Y23415000D03*
X25924999Y23415000D03*
D12*
X9875000Y18295001D03*
X9875000Y19314999D03*
D15*
X20655000Y25970000D03*
X20655000Y27520000D03*
D16*
X14642500Y12117500D03*
X12242500Y12117500D03*
X14642500Y9717500D03*
X12242500Y9717500D03*
D17*
X15942500Y15067500D03*
X14692500Y15067500D03*
X13442500Y15067500D03*
X12192500Y15067500D03*
X10942500Y15067500D03*
D18*
X9292500Y13417500D03*
X9292500Y12167500D03*
X9292500Y10917500D03*
X9292500Y9667500D03*
X9292500Y8417500D03*
D17*
X10942500Y6767500D03*
X12192500Y6767500D03*
X13442500Y6767500D03*
X14692500Y6767500D03*
X15942500Y6767500D03*
D18*
X17592500Y8417500D03*
X17592500Y9667500D03*
X17592500Y10917500D03*
X17592500Y12167500D03*
X17592500Y13417500D03*
D19*
X42975000Y21905000D03*
X41975000Y21905000D03*
X40975000Y21905000D03*
X39975000Y21905000D03*
X38975000Y21905000D03*
X37975000Y21905000D03*
X36975000Y21905000D03*
X35975000Y21905000D03*
X34975000Y21905000D03*
X33975000Y21905000D03*
X32975000Y21905000D03*
X31975000Y21905000D03*
D20*
X44275000Y25780000D03*
X30675000Y25780000D03*
D13*
X1295000Y21795000D03*
X2315000Y21795000D03*
D21*
X20837500Y24313000D03*
X20837500Y23363000D03*
X20837500Y22413000D03*
X23112500Y22413000D03*
X23112500Y24313000D03*
D22*
X19775000Y12171250D03*
X19775000Y11211250D03*
D23*
X70770000Y23375000D03*
X69520000Y23375000D03*
X68270000Y23375000D03*
X67020000Y23375000D03*
X65770000Y23375000D03*
X64520000Y23375000D03*
X63270000Y23375000D03*
X62020000Y23375000D03*
D24*
X73320000Y26275000D03*
X59470000Y26275000D03*
D25*
X53795000Y18785000D03*
X53795000Y18135000D03*
X53795000Y17485000D03*
X55695000Y17485000D03*
X55695000Y18135000D03*
X55695000Y18785000D03*
D26*
X26040000Y9542500D03*
X26040000Y8742500D03*
X26040000Y7942500D03*
X28340000Y7942500D03*
X28340000Y8742500D03*
X28340000Y9542500D03*
D27*
X27190000Y8742500D03*
D28*
X47570000Y24955000D03*
X46020000Y24955000D03*
D10*
X55604999Y12725001D03*
X54585001Y12725001D03*
D29*
X54405000Y28560001D03*
X54405000Y27010001D03*
D30*
X49610001Y22920000D03*
X54110001Y22920000D03*
D31*
X61815000Y6225000D03*
X61815000Y7185000D03*
D10*
X54654999Y16035000D03*
X53635001Y16035000D03*
D14*
X24025000Y9505000D03*
X24985000Y9505000D03*
D12*
X47715000Y27845000D03*
X47715000Y28864998D03*
D13*
X1405000Y18475000D03*
X2425000Y18475000D03*
D31*
X23565000Y25695000D03*
X23565000Y26655000D03*
D11*
X3727500Y18485000D03*
X5302500Y18485000D03*
D10*
X55604999Y14415000D03*
X54585001Y14415000D03*
D13*
X20505001Y21095000D03*
X21524999Y21095000D03*
D32*
X19335000Y24515000D03*
X18375000Y24515000D03*
D29*
X56095000Y28560000D03*
X56095000Y27010000D03*
D10*
X27704999Y10995000D03*
X26685001Y10995000D03*
D31*
X44985000Y6225000D03*
X44985000Y7185000D03*
D10*
X47154999Y26405000D03*
X46135001Y26405000D03*
D31*
X7385000Y12254999D03*
X7385000Y13214999D03*
D33*
X35975000Y5895000D03*
X36975000Y5895000D03*
X37975000Y5895000D03*
X38975000Y5895000D03*
D34*
X34775000Y2020000D03*
X40175000Y2020000D03*
D31*
X22495000Y25695000D03*
X22495000Y26655000D03*
D15*
X19084999Y25970000D03*
X19084999Y27520000D03*
D35*
X50945000Y28085000D03*
X50945000Y27585000D03*
X50945000Y27085000D03*
X52445000Y27085000D03*
X52445000Y27585000D03*
X52445000Y28085000D03*
M02*
