M48
; DRILL file {KiCad 9.0.2} date 2025-06-08T01:22:44+0530
; FORMAT={-:-/ absolute / metric / decimal}
; #@! TF.CreationDate,2025-06-08T01:22:44+05:30
; #@! TF.GenerationSoftware,Kicad,Pcbnew,9.0.2
; #@! TF.FileFunction,Plated,1,2,PTH
FMAT,2
METRIC
; #@! TA.AperFunction,Plated,PTH,ViaDrill
T1C0.300
; #@! TA.AperFunction,Plated,PTH,ViaDrill
T2C0.400
; #@! TA.AperFunction,Plated,PTH,ComponentDrill
T3C1.000
%
G90
G05
T1
X3.627Y21.775
X3.728Y18.485
X5.302Y18.485
X6.2Y21.8
X7.3Y8.418
X8.4Y17.5
X9.9Y17.5
X25.0Y9.0
X27.1Y6.9
X28.3Y10.1
X33.0Y25.3
X34.4Y15.9
X37.5Y15.0
X39.0Y1.9
X39.1Y7.0
X48.1Y26.2
T2
X6.0Y2.5
X7.0Y17.0
X7.0Y15.5
X9.0Y6.5
X12.042Y10.917
X13.442Y10.917
X14.842Y10.917
X20.0Y6.5
X20.0Y5.0
X21.0Y18.7
X21.0Y17.2
X22.5Y14.5
X24.5Y14.5
X25.0Y28.0
X25.145Y25.155
X26.5Y28.0
X26.5Y14.5
X28.0Y28.0
X28.5Y14.5
X32.4Y5.7
X36.5Y13.0
X36.5Y11.5
X36.5Y10.0
X37.0Y4.4
X38.0Y24.3
X38.0Y23.4
X38.0Y22.5
X43.0Y11.5
X43.0Y7.5
X43.0Y6.0
X43.0Y3.0
X45.0Y20.6
X45.1Y27.4
X45.5Y11.5
X45.9Y27.4
X46.7Y29.0
X46.7Y28.2
X46.7Y27.4
X48.0Y11.5
X49.5Y24.3
X49.5Y23.4
X49.5Y22.5
X50.5Y11.5
X55.3Y2.9
X56.0Y25.6
X56.0Y24.6
X56.0Y23.6
X57.0Y25.6
X57.0Y24.6
X57.0Y23.6
X57.6Y27.4
X57.6Y26.4
X59.0Y7.5
X59.0Y6.0
X59.0Y3.0
X65.0Y27.0
X66.5Y27.0
X68.0Y27.0
X75.5Y16.5
X75.5Y6.0
X76.0Y23.5
X77.5Y23.5
T3
X3.625Y14.975
X3.625Y12.435
X3.625Y9.895
X3.625Y7.355
X23.255Y3.425
X23.51Y18.175
X25.795Y3.425
X26.05Y18.175
X28.335Y3.425
X28.59Y18.175
X30.875Y3.425
X31.13Y18.175
X33.67Y18.175
X36.21Y18.175
X38.75Y18.175
X41.29Y18.175
X43.83Y18.175
X46.37Y18.175
X47.742Y6.825
X48.91Y18.175
X50.282Y6.825
X51.45Y18.175
X52.822Y6.825
X55.362Y6.825
X57.49Y19.925
X60.03Y19.925
X62.57Y19.925
X64.543Y6.825
X65.11Y19.925
X67.082Y6.825
X67.65Y19.925
X69.622Y6.825
X70.19Y19.925
X72.162Y6.825
X72.73Y19.925
X75.27Y19.925
M30
