%TF.GenerationSoftware,KiCad,Pcbnew,9.0.2*%
%TF.CreationDate,2025-06-08T01:22:44+05:30*%
%TF.ProjectId,AQEYE-SB-D1,41514559-452d-4534-922d-44312e6b6963,0.1*%
%TF.SameCoordinates,Original*%
%TF.FileFunction,Soldermask,Bot*%
%TF.FilePolarity,Negative*%
%FSLAX46Y46*%
G04 Gerber Fmt 4.6, Leading zero omitted, Abs format (unit mm)*
G04 Created by KiCad (PCBNEW 9.0.2) date 2025-06-08 01:22:44*
%MOMM*%
%LPD*%
G01*
G04 APERTURE LIST*
G04 Aperture macros list*
%AMRoundRect*
0 Rectangle with rounded corners*
0 $1 Rounding radius*
0 $2 $3 $4 $5 $6 $7 $8 $9 X,Y pos of 4 corners*
0 Add a 4 corners polygon primitive as box body*
4,1,4,$2,$3,$4,$5,$6,$7,$8,$9,$2,$3,0*
0 Add four circle primitives for the rounded corners*
1,1,$1+$1,$2,$3*
1,1,$1+$1,$4,$5*
1,1,$1+$1,$6,$7*
1,1,$1+$1,$8,$9*
0 Add four rect primitives between the rounded corners*
20,1,$1+$1,$2,$3,$4,$5,0*
20,1,$1+$1,$4,$5,$6,$7,0*
20,1,$1+$1,$6,$7,$8,$9,0*
20,1,$1+$1,$8,$9,$2,$3,0*%
G04 Aperture macros list end*
%ADD10C,2.200000*%
%ADD11R,1.700000X1.700000*%
%ADD12O,1.700000X1.700000*%
%ADD13RoundRect,0.476600X-0.000010X-0.000010X0.000010X-0.000010X0.000010X0.000010X-0.000010X0.000010X0*%
G04 APERTURE END LIST*
D10*
X77500000Y2500000D03*
X77500000Y27500000D03*
D11*
X47742500Y6824999D03*
D12*
X50282500Y6824999D03*
X52822499Y6824999D03*
X55362500Y6824999D03*
D10*
X2500000Y2500000D03*
D11*
X64542500Y6824999D03*
D12*
X67082500Y6824999D03*
X69622499Y6824999D03*
X72162500Y6824999D03*
D10*
X2500000Y27500000D03*
D11*
X75270000Y19925000D03*
D12*
X72730000Y19925000D03*
X70190001Y19925000D03*
X67650000Y19925000D03*
X65110000Y19925000D03*
X62570000Y19925000D03*
X60030000Y19925000D03*
X57489999Y19925000D03*
D11*
X51450000Y18175000D03*
D12*
X48910000Y18175000D03*
X46370001Y18175000D03*
X43830000Y18175000D03*
X41290000Y18175000D03*
X38750000Y18175000D03*
X36210000Y18175000D03*
X33669999Y18175000D03*
X31130000Y18175000D03*
X28590000Y18175000D03*
X26050000Y18175000D03*
X23510001Y18175000D03*
D11*
X30875000Y3424999D03*
D12*
X28335000Y3424999D03*
X25795001Y3424999D03*
X23255000Y3424999D03*
D11*
X3625000Y14975000D03*
D12*
X3625000Y12435000D03*
X3625000Y9895001D03*
X3625000Y7355000D03*
D13*
X5127500Y22822208D03*
X5127500Y19625152D03*
X3627500Y22822208D03*
X3627500Y19625152D03*
M02*
