%TF.GenerationSoftware,KiCad,Pcbnew,9.0.2*%
%TF.CreationDate,2025-06-06T22:39:28+05:30*%
%TF.ProjectId,AQEYE-SB-D1,41514559-452d-4534-922d-44312e6b6963,0.1*%
%TF.SameCoordinates,Original*%
%TF.FileFunction,Other,User*%
%FSLAX46Y46*%
G04 Gerber Fmt 4.6, Leading zero omitted, Abs format (unit mm)*
G04 Created by KiCad (PCBNEW 9.0.2) date 2025-06-06 22:39:28*
%MOMM*%
%LPD*%
G01*
G04 APERTURE LIST*
%ADD10C,0.050000*%
G04 APERTURE END LIST*
D10*
X24415000Y22760000D02*
X26275000Y22760000D01*
X24415000Y21820000D02*
X24415000Y22760000D01*
X26275000Y22760000D02*
X26275000Y21820000D01*
X26275000Y21820000D02*
X24415000Y21820000D01*
X53815000Y24205000D02*
X55275000Y24205000D01*
X53815000Y21245000D02*
X53815000Y24205000D01*
X55275000Y24205000D02*
X55275000Y21245000D01*
X55275000Y21245000D02*
X53815000Y21245000D01*
X40165152Y27855001D02*
X39165152Y27855001D01*
X39165152Y29455001D01*
X40165152Y29455001D01*
X40165152Y27855001D01*
X47315000Y26365000D02*
X49175000Y26365000D01*
X47315000Y25425000D02*
X47315000Y26365000D01*
X49175000Y26365000D02*
X49175000Y25425000D01*
X49175000Y25425000D02*
X47315000Y25425000D01*
X2935000Y22505000D02*
X5895000Y22505000D01*
X2935000Y21045000D02*
X2935000Y22505000D01*
X5895000Y22505000D02*
X5895000Y21045000D01*
X5895000Y21045000D02*
X2935000Y21045000D01*
X44663788Y27855001D02*
X43663788Y27855001D01*
X43663788Y29455001D01*
X44663788Y29455001D01*
X44663788Y27855001D01*
X7915000Y19735000D02*
X8855000Y19735000D01*
X7915000Y17875000D02*
X7915000Y19735000D01*
X8855000Y19735000D02*
X8855000Y17875000D01*
X8855000Y17875000D02*
X7915000Y17875000D01*
X79650000Y2500000D02*
G75*
G02*
X75350000Y2500000I-2150000J0D01*
G01*
X75350000Y2500000D02*
G75*
G02*
X79650000Y2500000I2150000J0D01*
G01*
X79650000Y27500000D02*
G75*
G02*
X75350000Y27500000I-2150000J0D01*
G01*
X75350000Y27500000D02*
G75*
G02*
X79650000Y27500000I2150000J0D01*
G01*
X46163333Y27855001D02*
X45163333Y27855001D01*
X45163333Y29455001D01*
X46163333Y29455001D01*
X46163333Y27855001D01*
X29095000Y9205000D02*
X30915000Y9205000D01*
X29095000Y8285000D02*
X29095000Y9205000D01*
X30915000Y9205000D02*
X30915000Y8285000D01*
X30915000Y8285000D02*
X29095000Y8285000D01*
X24485000Y23885000D02*
X26345000Y23885000D01*
X24485000Y22945000D02*
X24485000Y23885000D01*
X26345000Y23885000D02*
X26345000Y22945000D01*
X26345000Y22945000D02*
X24485000Y22945000D01*
X9405000Y19735000D02*
X10345000Y19735000D01*
X9405000Y17875000D02*
X9405000Y19735000D01*
X10345000Y19735000D02*
X10345000Y17875000D01*
X10345000Y17875000D02*
X9405000Y17875000D01*
X19925000Y28225000D02*
X21385000Y28225000D01*
X19925000Y25265000D02*
X19925000Y28225000D01*
X21385000Y28225000D02*
X21385000Y25265000D01*
X21385000Y25265000D02*
X19925000Y25265000D01*
X8092500Y16267500D02*
X8092500Y5567500D01*
X8092500Y5567500D02*
X18792500Y5567500D01*
X18792500Y16267500D02*
X8092500Y16267500D01*
X18792500Y5567500D02*
X18792500Y16267500D01*
X29575000Y27185000D02*
X29575000Y20625000D01*
X29575000Y20625000D02*
X45375000Y20625000D01*
X45375000Y27185000D02*
X29575000Y27185000D01*
X45375000Y20625000D02*
X45375000Y27185000D01*
X875000Y22265000D02*
X2735000Y22265000D01*
X875000Y21325000D02*
X875000Y22265000D01*
X2735000Y22265000D02*
X2735000Y21325000D01*
X2735000Y21325000D02*
X875000Y21325000D01*
X37166061Y27855001D02*
X36166061Y27855001D01*
X36166061Y29455001D01*
X37166061Y29455001D01*
X37166061Y27855001D01*
X46245000Y25205000D02*
X46245000Y23405000D01*
X46245000Y25205000D02*
X49145000Y25205000D01*
X49145000Y23405000D02*
X46245000Y23405000D01*
X49145000Y23405000D02*
X49145000Y25205000D01*
X50675001Y24105000D02*
X51595001Y24105000D01*
X50675001Y22285000D02*
X50675001Y24105000D01*
X51595001Y24105000D02*
X51595001Y22285000D01*
X51595001Y22285000D02*
X50675001Y22285000D01*
X19925000Y25063000D02*
X19925000Y21663000D01*
X19925000Y21663000D02*
X24025000Y21663000D01*
X24025000Y25063000D02*
X19925000Y25063000D01*
X24025000Y21663000D02*
X24025000Y25063000D01*
X19315000Y12601250D02*
X20235000Y12601250D01*
X19315000Y10781250D02*
X19315000Y12601250D01*
X20235000Y12601250D02*
X20235000Y10781250D01*
X20235000Y10781250D02*
X19315000Y10781250D01*
X57915000Y28875001D02*
X57915000Y22074999D01*
X57915000Y22074999D02*
X74875000Y22074999D01*
X74875000Y28875001D02*
X57915000Y28875001D01*
X74875000Y22074999D02*
X74875000Y28875001D01*
X35666515Y27855001D02*
X34666515Y27855001D01*
X34666515Y29455001D01*
X35666515Y29455001D01*
X35666515Y27855001D01*
X34166970Y27855001D02*
X33166970Y27855001D01*
X33166970Y29455001D01*
X34166970Y29455001D01*
X34166970Y27855001D01*
X43164242Y27855001D02*
X42164242Y27855001D01*
X42164242Y29455001D01*
X43164242Y29455001D01*
X43164242Y27855001D01*
X45942500Y8624999D02*
X45942500Y5024999D01*
X45942500Y5024999D02*
X57142500Y5024999D01*
X57142500Y8624999D02*
X45942500Y8624999D01*
X57142500Y5024999D02*
X57142500Y8624999D01*
X7655000Y22245000D02*
X7655000Y20445000D01*
X7655000Y22245000D02*
X10555000Y22245000D01*
X10555000Y20445000D02*
X7655000Y20445000D01*
X10555000Y20445000D02*
X10555000Y22245000D01*
X25690000Y10342500D02*
X28690000Y10342500D01*
X28690000Y7142500D01*
X25690000Y7142500D01*
X25690000Y10342500D01*
X38665606Y27855001D02*
X37665606Y27855001D01*
X37665606Y29455001D01*
X38665606Y29455001D01*
X38665606Y27855001D01*
X54265000Y14595001D02*
X56125000Y14595001D01*
X54265000Y13655001D02*
X54265000Y14595001D01*
X56125000Y14595001D02*
X56125000Y13655001D01*
X56125000Y13655001D02*
X54265000Y13655001D01*
X49475002Y27806000D02*
X49475002Y24406000D01*
X49475002Y24406000D02*
X53575000Y24406000D01*
X53575000Y27806000D02*
X49475002Y27806000D01*
X53575000Y24406000D02*
X53575000Y27806000D01*
X4650000Y2500000D02*
G75*
G02*
X350000Y2500000I-2150000J0D01*
G01*
X350000Y2500000D02*
G75*
G02*
X4650000Y2500000I2150000J0D01*
G01*
X63060000Y1624999D02*
X73660000Y1624999D01*
X73660000Y5224999D01*
X63060000Y5224999D01*
X63060000Y1624999D01*
X61355000Y7615000D02*
X62275000Y7615000D01*
X61355000Y5795000D02*
X61355000Y7615000D01*
X62275000Y7615000D02*
X62275000Y5795000D01*
X62275000Y5795000D02*
X61355000Y5795000D01*
X23595000Y9965000D02*
X25415000Y9965000D01*
X23595000Y9045000D02*
X23595000Y9965000D01*
X25415000Y9965000D02*
X25415000Y9045000D01*
X25415000Y9045000D02*
X23595000Y9045000D01*
X24345000Y26055000D02*
X24345000Y24255000D01*
X24345000Y26055000D02*
X27245000Y26055000D01*
X27245000Y24255000D02*
X24345000Y24255000D01*
X27245000Y24255000D02*
X27245000Y26055000D01*
X985000Y18945000D02*
X2845000Y18945000D01*
X985000Y18005000D02*
X985000Y18945000D01*
X2845000Y18945000D02*
X2845000Y18005000D01*
X2845000Y18005000D02*
X985000Y18005000D01*
X23105000Y27085000D02*
X24025000Y27085000D01*
X23105000Y25265000D02*
X23105000Y27085000D01*
X24025000Y27085000D02*
X24025000Y25265000D01*
X24025000Y25265000D02*
X23105000Y25265000D01*
X3035000Y19215000D02*
X5995000Y19215000D01*
X3035000Y17755000D02*
X3035000Y19215000D01*
X5995000Y19215000D02*
X5995000Y17755000D01*
X5995000Y17755000D02*
X3035000Y17755000D01*
X29668334Y27855001D02*
X28668334Y27855001D01*
X28668334Y29455001D01*
X29668334Y29455001D01*
X29668334Y27855001D01*
X54265000Y15985000D02*
X56125000Y15985000D01*
X54265000Y15045000D02*
X54265000Y15985000D01*
X56125000Y15985000D02*
X56125000Y15045000D01*
X56125000Y15045000D02*
X54265000Y15045000D01*
X31167879Y27855001D02*
X30167879Y27855001D01*
X30167879Y29455001D01*
X31167879Y29455001D01*
X31167879Y27855001D01*
X20085000Y21565000D02*
X21945000Y21565000D01*
X20085000Y20625000D02*
X20085000Y21565000D01*
X21945000Y21565000D02*
X21945000Y20625000D01*
X21945000Y20625000D02*
X20085000Y20625000D01*
X52145000Y24205000D02*
X53605000Y24205000D01*
X52145000Y21245000D02*
X52145000Y24205000D01*
X53605000Y24205000D02*
X53605000Y21245000D01*
X53605000Y21245000D02*
X52145000Y21245000D01*
X17945000Y24975000D02*
X19765000Y24975000D01*
X17945000Y24055000D02*
X17945000Y24975000D01*
X19765000Y24975000D02*
X19765000Y24055000D01*
X19765000Y24055000D02*
X17945000Y24055000D01*
X53865000Y25275000D02*
X55685000Y25275000D01*
X53865000Y24355000D02*
X53865000Y25275000D01*
X55685000Y25275000D02*
X55685000Y24355000D01*
X55685000Y24355000D02*
X53865000Y24355000D01*
X47285000Y27575000D02*
X49145000Y27575000D01*
X47285000Y26635000D02*
X47285000Y27575000D01*
X49145000Y27575000D02*
X49145000Y26635000D01*
X49145000Y26635000D02*
X47285000Y26635000D01*
X49525000Y24135000D02*
X50445000Y24135000D01*
X49525000Y22315000D02*
X49525000Y24135000D01*
X50445000Y24135000D02*
X50445000Y22315000D01*
X50445000Y22315000D02*
X49525000Y22315000D01*
X62742500Y8624999D02*
X62742500Y5024999D01*
X62742500Y5024999D02*
X73942500Y5024999D01*
X73942500Y8624999D02*
X62742500Y8624999D01*
X73942500Y5024999D02*
X73942500Y8624999D01*
X32667425Y27855001D02*
X31667425Y27855001D01*
X31667425Y29455001D01*
X32667425Y29455001D01*
X32667425Y27855001D01*
X41664697Y27855001D02*
X40664697Y27855001D01*
X40664697Y29455001D01*
X41664697Y29455001D01*
X41664697Y27855001D01*
X26265000Y11465000D02*
X28125000Y11465000D01*
X26265000Y10525000D02*
X26265000Y11465000D01*
X28125000Y11465000D02*
X28125000Y10525000D01*
X28125000Y10525000D02*
X26265000Y10525000D01*
X44525000Y7615000D02*
X45445000Y7615000D01*
X44525000Y5795000D02*
X44525000Y7615000D01*
X45445000Y7615000D02*
X45445000Y5795000D01*
X45445000Y5795000D02*
X44525000Y5795000D01*
X53815001Y27415001D02*
X54755001Y27415001D01*
X53815001Y25555001D02*
X53815001Y27415001D01*
X54755001Y27415001D02*
X54755001Y25555001D01*
X54755001Y25555001D02*
X53815001Y25555001D01*
X4650000Y27500000D02*
G75*
G02*
X350000Y27500000I-2150000J0D01*
G01*
X350000Y27500000D02*
G75*
G02*
X4650000Y27500000I2150000J0D01*
G01*
X6925000Y13644999D02*
X7845000Y13644999D01*
X6925000Y11824999D02*
X6925000Y13644999D01*
X7845000Y13644999D02*
X7845000Y11824999D01*
X7845000Y11824999D02*
X6925000Y11824999D01*
X55720000Y21725000D02*
X55720000Y18125000D01*
X55720000Y18125000D02*
X77070000Y18125000D01*
X77070000Y21725000D02*
X55720000Y21725000D01*
X77070000Y18125000D02*
X77070000Y21725000D01*
X21700000Y19975000D02*
X21700000Y16375000D01*
X21700000Y16375000D02*
X53250000Y16375000D01*
X53250000Y19975000D02*
X21700000Y19975000D01*
X53250000Y16375000D02*
X53250000Y19975000D01*
X33575000Y7175000D02*
X33575000Y615000D01*
X33575000Y615000D02*
X41375000Y615000D01*
X41375000Y7175000D02*
X33575000Y7175000D01*
X41375000Y615000D02*
X41375000Y7175000D01*
X21475000Y5224999D02*
X21475000Y1624999D01*
X21475000Y1624999D02*
X32675000Y1624999D01*
X32675000Y5224999D02*
X21475000Y5224999D01*
X32675000Y1624999D02*
X32675000Y5224999D01*
X22035000Y27085000D02*
X22955000Y27085000D01*
X22035000Y25265000D02*
X22035000Y27085000D01*
X22955000Y27085000D02*
X22955000Y25265000D01*
X22955000Y25265000D02*
X22035000Y25265000D01*
X18354999Y28225000D02*
X19814999Y28225000D01*
X18354999Y25265000D02*
X18354999Y28225000D01*
X19814999Y28225000D02*
X19814999Y25265000D01*
X19814999Y25265000D02*
X18354999Y25265000D01*
X78750000Y7000000D02*
G75*
G02*
X76250000Y7000000I-1250000J0D01*
G01*
X76250000Y7000000D02*
G75*
G02*
X78750000Y7000000I1250000J0D01*
G01*
X46260000Y1624999D02*
X56860000Y1624999D01*
X56860000Y5224999D01*
X46260000Y5224999D01*
X46260000Y1624999D01*
X1825000Y16775000D02*
X1825000Y5575000D01*
X1825000Y5575000D02*
X5425000Y5575000D01*
X5425000Y16775000D02*
X1825000Y16775000D01*
X5425000Y5575000D02*
X5425000Y16775000D01*
M02*
