%TF.GenerationSoftware,KiCad,Pcbnew,9.0.2*%
%TF.CreationDate,2025-06-06T22:39:28+05:30*%
%TF.ProjectId,AQEYE-SB-D1,41514559-452d-4534-922d-44312e6b6963,0.1*%
%TF.SameCoordinates,Original*%
%TF.FileFunction,Soldermask,Top*%
%TF.FilePolarity,Negative*%
%FSLAX46Y46*%
G04 Gerber Fmt 4.6, Leading zero omitted, Abs format (unit mm)*
G04 Created by KiCad (PCBNEW 9.0.2) date 2025-06-06 22:39:28*
%MOMM*%
%LPD*%
G01*
G04 APERTURE LIST*
G04 Aperture macros list*
%AMRoundRect*
0 Rectangle with rounded corners*
0 $1 Rounding radius*
0 $2 $3 $4 $5 $6 $7 $8 $9 X,Y pos of 4 corners*
0 Add a 4 corners polygon primitive as box body*
4,1,4,$2,$3,$4,$5,$6,$7,$8,$9,$2,$3,0*
0 Add four circle primitives for the rounded corners*
1,1,$1+$1,$2,$3*
1,1,$1+$1,$4,$5*
1,1,$1+$1,$6,$7*
1,1,$1+$1,$8,$9*
0 Add four rect primitives between the rounded corners*
20,1,$1+$1,$2,$3,$4,$5,0*
20,1,$1+$1,$4,$5,$6,$7,0*
20,1,$1+$1,$6,$7,$8,$9,0*
20,1,$1+$1,$8,$9,$2,$3,0*%
%AMOutline5P*
0 Free polygon, 5 corners , with rotation*
0 The origin of the aperture is its center*
0 number of corners: always 5*
0 $1 to $10 corner X, Y*
0 $11 Rotation angle, in degrees counterclockwise*
0 create outline with 5 corners*
4,1,5,$1,$2,$3,$4,$5,$6,$7,$8,$9,$10,$1,$2,$11*%
%AMOutline6P*
0 Free polygon, 6 corners , with rotation*
0 The origin of the aperture is its center*
0 number of corners: always 6*
0 $1 to $12 corner X, Y*
0 $13 Rotation angle, in degrees counterclockwise*
0 create outline with 6 corners*
4,1,6,$1,$2,$3,$4,$5,$6,$7,$8,$9,$10,$11,$12,$1,$2,$13*%
%AMOutline7P*
0 Free polygon, 7 corners , with rotation*
0 The origin of the aperture is its center*
0 number of corners: always 7*
0 $1 to $14 corner X, Y*
0 $15 Rotation angle, in degrees counterclockwise*
0 create outline with 7 corners*
4,1,7,$1,$2,$3,$4,$5,$6,$7,$8,$9,$10,$11,$12,$13,$14,$1,$2,$15*%
%AMOutline8P*
0 Free polygon, 8 corners , with rotation*
0 The origin of the aperture is its center*
0 number of corners: always 8*
0 $1 to $16 corner X, Y*
0 $17 Rotation angle, in degrees counterclockwise*
0 create outline with 8 corners*
4,1,8,$1,$2,$3,$4,$5,$6,$7,$8,$9,$10,$11,$12,$13,$14,$15,$16,$1,$2,$17*%
%AMFreePoly0*
4,1,15,-0.500000,0.200000,-0.480423,0.323607,-0.423607,0.435114,-0.335114,0.523607,-0.223607,0.580423,-0.100000,0.600000,0.500000,0.600000,0.500000,-0.600000,-0.100000,-0.600000,-0.223607,-0.580423,-0.335114,-0.523607,-0.423607,-0.435114,-0.480423,-0.323607,-0.500000,-0.200000,-0.500000,0.200000,-0.500000,0.200000,$1*%
%AMFreePoly1*
4,1,15,-0.500000,0.600000,0.100000,0.600000,0.223607,0.580423,0.335114,0.523607,0.423607,0.435114,0.480423,0.323607,0.500000,0.200000,0.500000,-0.200000,0.480423,-0.323607,0.423607,-0.435114,0.335114,-0.523607,0.223607,-0.580423,0.100000,-0.600000,-0.500000,-0.600000,-0.500000,0.600000,-0.500000,0.600000,$1*%
G04 Aperture macros list end*
%ADD10RoundRect,0.135000X0.135000X0.185000X-0.135000X0.185000X-0.135000X-0.185000X0.135000X-0.185000X0*%
%ADD11RoundRect,0.225000X-0.250000X0.225000X-0.250000X-0.225000X0.250000X-0.225000X0.250000X0.225000X0*%
%ADD12RoundRect,0.225000X0.225000X0.525000X-0.225000X0.525000X-0.225000X-0.525000X0.225000X-0.525000X0*%
%ADD13RoundRect,0.218750X-0.218750X-0.256250X0.218750X-0.256250X0.218750X0.256250X-0.218750X0.256250X0*%
%ADD14RoundRect,0.135000X0.185000X-0.135000X0.185000X0.135000X-0.185000X0.135000X-0.185000X-0.135000X0*%
%ADD15C,2.200000*%
%ADD16RoundRect,0.140000X-0.140000X-0.170000X0.140000X-0.170000X0.140000X0.170000X-0.140000X0.170000X0*%
%ADD17RoundRect,0.135000X-0.135000X-0.185000X0.135000X-0.185000X0.135000X0.185000X-0.135000X0.185000X0*%
%ADD18RoundRect,0.225000X0.250000X-0.225000X0.250000X0.225000X-0.250000X0.225000X-0.250000X-0.225000X0*%
%ADD19RoundRect,0.212500X-0.212500X0.737500X-0.212500X-0.737500X0.212500X-0.737500X0.212500X0.737500X0*%
%ADD20RoundRect,0.212500X-0.737500X0.212500X-0.737500X-0.212500X0.737500X-0.212500X0.737500X0.212500X0*%
%ADD21R,4.800000X4.800000*%
%ADD22RoundRect,0.150000X0.150000X0.625000X-0.150000X0.625000X-0.150000X-0.625000X0.150000X-0.625000X0*%
%ADD23RoundRect,0.250000X0.350000X0.650000X-0.350000X0.650000X-0.350000X-0.650000X0.350000X-0.650000X0*%
%ADD24FreePoly0,180.000000*%
%ADD25FreePoly1,180.000000*%
%ADD26RoundRect,0.140000X-0.170000X0.140000X-0.170000X-0.140000X0.170000X-0.140000X0.170000X0.140000X0*%
%ADD27RoundRect,0.150000X-0.512500X-0.150000X0.512500X-0.150000X0.512500X0.150000X-0.512500X0.150000X0*%
%ADD28RoundRect,0.200000X0.200000X0.600000X-0.200000X0.600000X-0.200000X-0.600000X0.200000X-0.600000X0*%
%ADD29RoundRect,0.250001X0.799999X1.249999X-0.799999X1.249999X-0.799999X-1.249999X0.799999X-1.249999X0*%
%ADD30R,1.700000X1.700000*%
%ADD31O,1.700000X1.700000*%
%ADD32FreePoly0,0.000000*%
%ADD33FreePoly1,0.000000*%
%ADD34R,0.550000X0.400000*%
%ADD35Outline5P,-0.625000X0.537500X-0.312500X0.850000X0.625000X0.850000X0.625000X-0.850000X-0.625000X-0.850000X0.000000*%
%ADD36RoundRect,0.150000X0.512500X0.150000X-0.512500X0.150000X-0.512500X-0.150000X0.512500X-0.150000X0*%
%ADD37R,1.700000X2.500000*%
%ADD38RoundRect,0.400000X0.450000X-0.850000X0.450000X0.850000X-0.450000X0.850000X-0.450000X-0.850000X0*%
%ADD39RoundRect,0.140000X0.170000X-0.140000X0.170000X0.140000X-0.170000X0.140000X-0.170000X-0.140000X0*%
%ADD40RoundRect,0.140000X0.140000X0.170000X-0.140000X0.170000X-0.140000X-0.170000X0.140000X-0.170000X0*%
%ADD41RoundRect,0.135000X-0.185000X0.135000X-0.185000X-0.135000X0.185000X-0.135000X0.185000X0.135000X0*%
%ADD42RoundRect,0.150000X-0.150000X-0.625000X0.150000X-0.625000X0.150000X0.625000X-0.150000X0.625000X0*%
%ADD43RoundRect,0.208333X-0.291667X-0.691667X0.291667X-0.691667X0.291667X0.691667X-0.291667X0.691667X0*%
%ADD44C,2.000000*%
G04 APERTURE END LIST*
D10*
X25854999Y22290000D03*
X24835001Y22290000D03*
D11*
X54545000Y23500000D03*
X54545000Y21950000D03*
D12*
X39665152Y28655001D03*
D10*
X48754999Y25895000D03*
X47735001Y25895000D03*
D13*
X3627500Y21775000D03*
X5202500Y21775000D03*
D12*
X44163788Y28655001D03*
D14*
X8385000Y18295001D03*
X8385000Y19314999D03*
D15*
X77500000Y2500000D03*
X77500000Y27500000D03*
D12*
X45663333Y28655001D03*
D16*
X29525000Y8745000D03*
X30485000Y8745000D03*
D17*
X24905001Y23415000D03*
X25924999Y23415000D03*
D14*
X9875000Y18295001D03*
X9875000Y19314999D03*
D18*
X20655000Y25970000D03*
X20655000Y27520000D03*
D19*
X15942500Y15067500D03*
X14692500Y15067500D03*
X13442500Y15067500D03*
X12192500Y15067500D03*
X10942500Y15067500D03*
D20*
X9292500Y13417500D03*
X9292500Y12167500D03*
X9292500Y10917500D03*
X9292500Y9667500D03*
X9292500Y8417500D03*
D19*
X10942500Y6767500D03*
X12192500Y6767500D03*
X13442500Y6767500D03*
X14692500Y6767500D03*
X15942500Y6767500D03*
D20*
X17592500Y8417500D03*
X17592500Y9667500D03*
X17592500Y10917500D03*
X17592500Y12167500D03*
X17592500Y13417500D03*
D21*
X13442500Y10917500D03*
D22*
X42975000Y21905000D03*
X41975000Y21905000D03*
X40975000Y21905000D03*
X39975000Y21905000D03*
X38975000Y21905000D03*
X37975000Y21905000D03*
X36975000Y21905000D03*
X35975000Y21905000D03*
X34975000Y21905000D03*
X33975000Y21905000D03*
X32975000Y21905000D03*
X31975000Y21905000D03*
D23*
X44275000Y25780000D03*
X30675000Y25780000D03*
D17*
X1295000Y21795000D03*
X2315000Y21795000D03*
D12*
X36666061Y28655001D03*
D24*
X48344999Y24305000D03*
D25*
X47045001Y24305000D03*
D26*
X51135001Y23675000D03*
X51135001Y22715000D03*
D27*
X20837500Y24313000D03*
X20837500Y23363000D03*
X20837500Y22413000D03*
X23112500Y22413000D03*
X23112500Y24313000D03*
D26*
X19775000Y12171250D03*
X19775000Y11211250D03*
D28*
X70770000Y23375000D03*
X69520000Y23375000D03*
X68270000Y23375000D03*
X67020000Y23375000D03*
X65770000Y23375000D03*
X64520000Y23375000D03*
X63270000Y23375000D03*
X62020000Y23375000D03*
D29*
X73320000Y26275000D03*
X59470000Y26275000D03*
D12*
X35166515Y28655001D03*
X33666970Y28655001D03*
X42664242Y28655001D03*
D30*
X47742500Y6824999D03*
D31*
X50282500Y6824999D03*
X52822499Y6824999D03*
X55362500Y6824999D03*
D32*
X8455001Y21345000D03*
D33*
X9754999Y21345000D03*
D34*
X26040000Y9542500D03*
X26040000Y8742500D03*
X26040000Y7942500D03*
X28340000Y7942500D03*
X28340000Y8742500D03*
X28340000Y9542500D03*
D35*
X27190000Y8742500D03*
D12*
X38165606Y28655001D03*
D10*
X55704999Y14125001D03*
X54685001Y14125001D03*
D36*
X52662501Y25156001D03*
X52662501Y26106000D03*
X52662501Y27055999D03*
X50387501Y27055999D03*
X50387501Y25156001D03*
D15*
X2500000Y2500000D03*
D37*
X64550000Y3424999D03*
D38*
X67090000Y3424999D03*
X69630000Y3424999D03*
X72170000Y3424999D03*
D39*
X61815000Y6225000D03*
X61815000Y7185000D03*
D16*
X24025000Y9505000D03*
X24985000Y9505000D03*
D24*
X26444999Y25155000D03*
D25*
X25145001Y25155000D03*
D17*
X1405000Y18475000D03*
X2425000Y18475000D03*
D39*
X23565000Y25695000D03*
X23565000Y26655000D03*
D13*
X3727500Y18485000D03*
X5302500Y18485000D03*
D12*
X29168334Y28655001D03*
D10*
X55704999Y15515000D03*
X54685001Y15515000D03*
D12*
X30667879Y28655001D03*
D17*
X20505001Y21095000D03*
X21524999Y21095000D03*
D11*
X52875000Y23500000D03*
X52875000Y21950000D03*
D40*
X19335000Y24515000D03*
X18375000Y24515000D03*
D16*
X54295000Y24815000D03*
X55255000Y24815000D03*
D17*
X47705001Y27105000D03*
X48724999Y27105000D03*
D26*
X49985000Y23705000D03*
X49985000Y22745000D03*
D30*
X64542500Y6824999D03*
D31*
X67082500Y6824999D03*
X69622499Y6824999D03*
X72162500Y6824999D03*
D12*
X32167425Y28655001D03*
X41164697Y28655001D03*
D10*
X27704999Y10995000D03*
X26685001Y10995000D03*
D39*
X44985000Y6225000D03*
X44985000Y7185000D03*
D41*
X54285001Y26995000D03*
X54285001Y25975002D03*
D15*
X2500000Y27500000D03*
D39*
X7385000Y12254999D03*
X7385000Y13214999D03*
D30*
X75270000Y19925000D03*
D31*
X72730000Y19925000D03*
X70190001Y19925000D03*
X67650000Y19925000D03*
X65110000Y19925000D03*
X62570000Y19925000D03*
X60030000Y19925000D03*
X57489999Y19925000D03*
D30*
X51450000Y18175000D03*
D31*
X48910000Y18175000D03*
X46370001Y18175000D03*
X43830000Y18175000D03*
X41290000Y18175000D03*
X38750000Y18175000D03*
X36210000Y18175000D03*
X33669999Y18175000D03*
X31130000Y18175000D03*
X28590000Y18175000D03*
X26050000Y18175000D03*
X23510001Y18175000D03*
D42*
X35975000Y5895000D03*
X36975000Y5895000D03*
X37975000Y5895000D03*
X38975000Y5895000D03*
D43*
X34775000Y2020000D03*
X40175000Y2020000D03*
D30*
X30875000Y3424999D03*
D31*
X28335000Y3424999D03*
X25795001Y3424999D03*
X23255000Y3424999D03*
D39*
X22495000Y25695000D03*
X22495000Y26655000D03*
D18*
X19084999Y25970000D03*
X19084999Y27520000D03*
D44*
X77500000Y7000000D03*
D37*
X47750000Y3424999D03*
D38*
X50290000Y3424999D03*
X52830000Y3424999D03*
X55370000Y3424999D03*
D30*
X3625000Y14975000D03*
D31*
X3625000Y12435000D03*
X3625000Y9895001D03*
X3625000Y7355000D03*
M02*
