%TF.GenerationSoftware,KiCad,Pcbnew,9.0.2*%
%TF.CreationDate,2025-06-06T22:39:28+05:30*%
%TF.ProjectId,AQEYE-SB-D1,41514559-452d-4534-922d-44312e6b6963,0.1*%
%TF.SameCoordinates,Original*%
%TF.FileFunction,OtherDrawing,Comment*%
%FSLAX46Y46*%
G04 Gerber Fmt 4.6, Leading zero omitted, Abs format (unit mm)*
G04 Created by KiCad (PCBNEW 9.0.2) date 2025-06-06 22:39:28*
%MOMM*%
%LPD*%
G01*
G04 APERTURE LIST*
%ADD10C,0.100000*%
%ADD11C,0.150000*%
%ADD12C,0.200000*%
G04 APERTURE END LIST*
D10*
X0Y0D02*
X2000000Y0D01*
X0Y2000000D02*
X0Y0D01*
D11*
X80747619Y-3081057D02*
X80414286Y-2604866D01*
X80176191Y-3081057D02*
X80176191Y-2081057D01*
X80176191Y-2081057D02*
X80557143Y-2081057D01*
X80557143Y-2081057D02*
X80652381Y-2128676D01*
X80652381Y-2128676D02*
X80700000Y-2176295D01*
X80700000Y-2176295D02*
X80747619Y-2271533D01*
X80747619Y-2271533D02*
X80747619Y-2414390D01*
X80747619Y-2414390D02*
X80700000Y-2509628D01*
X80700000Y-2509628D02*
X80652381Y-2557247D01*
X80652381Y-2557247D02*
X80557143Y-2604866D01*
X80557143Y-2604866D02*
X80176191Y-2604866D01*
X82461905Y-3081057D02*
X81890477Y-3081057D01*
X82176191Y-3081057D02*
X82176191Y-2081057D01*
X82176191Y-2081057D02*
X82080953Y-2223914D01*
X82080953Y-2223914D02*
X81985715Y-2319152D01*
X81985715Y-2319152D02*
X81890477Y-2366771D01*
X82890477Y-2985818D02*
X82938096Y-3033438D01*
X82938096Y-3033438D02*
X82890477Y-3081057D01*
X82890477Y-3081057D02*
X82842858Y-3033438D01*
X82842858Y-3033438D02*
X82890477Y-2985818D01*
X82890477Y-2985818D02*
X82890477Y-3081057D01*
X83890476Y-3081057D02*
X83319048Y-3081057D01*
X83604762Y-3081057D02*
X83604762Y-2081057D01*
X83604762Y-2081057D02*
X83509524Y-2223914D01*
X83509524Y-2223914D02*
X83414286Y-2319152D01*
X83414286Y-2319152D02*
X83319048Y-2366771D01*
X84509524Y-2081057D02*
X84604762Y-2081057D01*
X84604762Y-2081057D02*
X84700000Y-2128676D01*
X84700000Y-2128676D02*
X84747619Y-2176295D01*
X84747619Y-2176295D02*
X84795238Y-2271533D01*
X84795238Y-2271533D02*
X84842857Y-2462009D01*
X84842857Y-2462009D02*
X84842857Y-2700104D01*
X84842857Y-2700104D02*
X84795238Y-2890580D01*
X84795238Y-2890580D02*
X84747619Y-2985818D01*
X84747619Y-2985818D02*
X84700000Y-3033438D01*
X84700000Y-3033438D02*
X84604762Y-3081057D01*
X84604762Y-3081057D02*
X84509524Y-3081057D01*
X84509524Y-3081057D02*
X84414286Y-3033438D01*
X84414286Y-3033438D02*
X84366667Y-2985818D01*
X84366667Y-2985818D02*
X84319048Y-2890580D01*
X84319048Y-2890580D02*
X84271429Y-2700104D01*
X84271429Y-2700104D02*
X84271429Y-2462009D01*
X84271429Y-2462009D02*
X84319048Y-2271533D01*
X84319048Y-2271533D02*
X84366667Y-2176295D01*
X84366667Y-2176295D02*
X84414286Y-2128676D01*
X84414286Y-2128676D02*
X84509524Y-2081057D01*
X86033334Y-3081057D02*
X86033334Y-2414390D01*
X86033334Y-2509628D02*
X86080953Y-2462009D01*
X86080953Y-2462009D02*
X86176191Y-2414390D01*
X86176191Y-2414390D02*
X86319048Y-2414390D01*
X86319048Y-2414390D02*
X86414286Y-2462009D01*
X86414286Y-2462009D02*
X86461905Y-2557247D01*
X86461905Y-2557247D02*
X86461905Y-3081057D01*
X86461905Y-2557247D02*
X86509524Y-2462009D01*
X86509524Y-2462009D02*
X86604762Y-2414390D01*
X86604762Y-2414390D02*
X86747619Y-2414390D01*
X86747619Y-2414390D02*
X86842858Y-2462009D01*
X86842858Y-2462009D02*
X86890477Y-2557247D01*
X86890477Y-2557247D02*
X86890477Y-3081057D01*
X87366667Y-3081057D02*
X87366667Y-2414390D01*
X87366667Y-2509628D02*
X87414286Y-2462009D01*
X87414286Y-2462009D02*
X87509524Y-2414390D01*
X87509524Y-2414390D02*
X87652381Y-2414390D01*
X87652381Y-2414390D02*
X87747619Y-2462009D01*
X87747619Y-2462009D02*
X87795238Y-2557247D01*
X87795238Y-2557247D02*
X87795238Y-3081057D01*
X87795238Y-2557247D02*
X87842857Y-2462009D01*
X87842857Y-2462009D02*
X87938095Y-2414390D01*
X87938095Y-2414390D02*
X88080952Y-2414390D01*
X88080952Y-2414390D02*
X88176191Y-2462009D01*
X88176191Y-2462009D02*
X88223810Y-2557247D01*
X88223810Y-2557247D02*
X88223810Y-3081057D01*
D10*
X77500000Y3770000D02*
X77500000Y1230000D01*
X78770000Y2500000D02*
X76230000Y2500000D01*
X77500000Y1400000D02*
X77500000Y-2626238D01*
X77500000Y-2626238D02*
X79313096Y-2626238D01*
X77500000Y1400000D02*
X78086421Y273496D01*
X77500000Y1400000D02*
X76913579Y273496D01*
D11*
X-7095181Y11285716D02*
X-7095181Y11904763D01*
X-7095181Y11904763D02*
X-6714229Y11571430D01*
X-6714229Y11571430D02*
X-6714229Y11714287D01*
X-6714229Y11714287D02*
X-6666610Y11809525D01*
X-6666610Y11809525D02*
X-6618991Y11857144D01*
X-6618991Y11857144D02*
X-6523753Y11904763D01*
X-6523753Y11904763D02*
X-6285658Y11904763D01*
X-6285658Y11904763D02*
X-6190420Y11857144D01*
X-6190420Y11857144D02*
X-6142800Y11809525D01*
X-6142800Y11809525D02*
X-6095181Y11714287D01*
X-6095181Y11714287D02*
X-6095181Y11428573D01*
X-6095181Y11428573D02*
X-6142800Y11333335D01*
X-6142800Y11333335D02*
X-6190420Y11285716D01*
X-7095181Y12523811D02*
X-7095181Y12619049D01*
X-7095181Y12619049D02*
X-7047562Y12714287D01*
X-7047562Y12714287D02*
X-6999943Y12761906D01*
X-6999943Y12761906D02*
X-6904705Y12809525D01*
X-6904705Y12809525D02*
X-6714229Y12857144D01*
X-6714229Y12857144D02*
X-6476134Y12857144D01*
X-6476134Y12857144D02*
X-6285658Y12809525D01*
X-6285658Y12809525D02*
X-6190420Y12761906D01*
X-6190420Y12761906D02*
X-6142800Y12714287D01*
X-6142800Y12714287D02*
X-6095181Y12619049D01*
X-6095181Y12619049D02*
X-6095181Y12523811D01*
X-6095181Y12523811D02*
X-6142800Y12428573D01*
X-6142800Y12428573D02*
X-6190420Y12380954D01*
X-6190420Y12380954D02*
X-6285658Y12333335D01*
X-6285658Y12333335D02*
X-6476134Y12285716D01*
X-6476134Y12285716D02*
X-6714229Y12285716D01*
X-6714229Y12285716D02*
X-6904705Y12333335D01*
X-6904705Y12333335D02*
X-6999943Y12380954D01*
X-6999943Y12380954D02*
X-7047562Y12428573D01*
X-7047562Y12428573D02*
X-7095181Y12523811D01*
X-6190420Y13285716D02*
X-6142800Y13333335D01*
X-6142800Y13333335D02*
X-6095181Y13285716D01*
X-6095181Y13285716D02*
X-6142800Y13238097D01*
X-6142800Y13238097D02*
X-6190420Y13285716D01*
X-6190420Y13285716D02*
X-6095181Y13285716D01*
X-7095181Y13952382D02*
X-7095181Y14047620D01*
X-7095181Y14047620D02*
X-7047562Y14142858D01*
X-7047562Y14142858D02*
X-6999943Y14190477D01*
X-6999943Y14190477D02*
X-6904705Y14238096D01*
X-6904705Y14238096D02*
X-6714229Y14285715D01*
X-6714229Y14285715D02*
X-6476134Y14285715D01*
X-6476134Y14285715D02*
X-6285658Y14238096D01*
X-6285658Y14238096D02*
X-6190420Y14190477D01*
X-6190420Y14190477D02*
X-6142800Y14142858D01*
X-6142800Y14142858D02*
X-6095181Y14047620D01*
X-6095181Y14047620D02*
X-6095181Y13952382D01*
X-6095181Y13952382D02*
X-6142800Y13857144D01*
X-6142800Y13857144D02*
X-6190420Y13809525D01*
X-6190420Y13809525D02*
X-6285658Y13761906D01*
X-6285658Y13761906D02*
X-6476134Y13714287D01*
X-6476134Y13714287D02*
X-6714229Y13714287D01*
X-6714229Y13714287D02*
X-6904705Y13761906D01*
X-6904705Y13761906D02*
X-6999943Y13809525D01*
X-6999943Y13809525D02*
X-7047562Y13857144D01*
X-7047562Y13857144D02*
X-7095181Y13952382D01*
X-7095181Y14904763D02*
X-7095181Y15000001D01*
X-7095181Y15000001D02*
X-7047562Y15095239D01*
X-7047562Y15095239D02*
X-6999943Y15142858D01*
X-6999943Y15142858D02*
X-6904705Y15190477D01*
X-6904705Y15190477D02*
X-6714229Y15238096D01*
X-6714229Y15238096D02*
X-6476134Y15238096D01*
X-6476134Y15238096D02*
X-6285658Y15190477D01*
X-6285658Y15190477D02*
X-6190420Y15142858D01*
X-6190420Y15142858D02*
X-6142800Y15095239D01*
X-6142800Y15095239D02*
X-6095181Y15000001D01*
X-6095181Y15000001D02*
X-6095181Y14904763D01*
X-6095181Y14904763D02*
X-6142800Y14809525D01*
X-6142800Y14809525D02*
X-6190420Y14761906D01*
X-6190420Y14761906D02*
X-6285658Y14714287D01*
X-6285658Y14714287D02*
X-6476134Y14666668D01*
X-6476134Y14666668D02*
X-6714229Y14666668D01*
X-6714229Y14666668D02*
X-6904705Y14714287D01*
X-6904705Y14714287D02*
X-6999943Y14761906D01*
X-6999943Y14761906D02*
X-7047562Y14809525D01*
X-7047562Y14809525D02*
X-7095181Y14904763D01*
X-6095181Y16428573D02*
X-6761848Y16428573D01*
X-6666610Y16428573D02*
X-6714229Y16476192D01*
X-6714229Y16476192D02*
X-6761848Y16571430D01*
X-6761848Y16571430D02*
X-6761848Y16714287D01*
X-6761848Y16714287D02*
X-6714229Y16809525D01*
X-6714229Y16809525D02*
X-6618991Y16857144D01*
X-6618991Y16857144D02*
X-6095181Y16857144D01*
X-6618991Y16857144D02*
X-6714229Y16904763D01*
X-6714229Y16904763D02*
X-6761848Y17000001D01*
X-6761848Y17000001D02*
X-6761848Y17142858D01*
X-6761848Y17142858D02*
X-6714229Y17238097D01*
X-6714229Y17238097D02*
X-6618991Y17285716D01*
X-6618991Y17285716D02*
X-6095181Y17285716D01*
X-6095181Y17761906D02*
X-6761848Y17761906D01*
X-6666610Y17761906D02*
X-6714229Y17809525D01*
X-6714229Y17809525D02*
X-6761848Y17904763D01*
X-6761848Y17904763D02*
X-6761848Y18047620D01*
X-6761848Y18047620D02*
X-6714229Y18142858D01*
X-6714229Y18142858D02*
X-6618991Y18190477D01*
X-6618991Y18190477D02*
X-6095181Y18190477D01*
X-6618991Y18190477D02*
X-6714229Y18238096D01*
X-6714229Y18238096D02*
X-6761848Y18333334D01*
X-6761848Y18333334D02*
X-6761848Y18476191D01*
X-6761848Y18476191D02*
X-6714229Y18571430D01*
X-6714229Y18571430D02*
X-6618991Y18619049D01*
X-6618991Y18619049D02*
X-6095181Y18619049D01*
D10*
X1800000Y30000000D02*
X-5986420Y30000000D01*
X-5986420Y0D02*
X1800000Y0D01*
X-5400000Y30000000D02*
X-5400000Y0D01*
X-5400000Y30000000D02*
X-4813579Y28873496D01*
X-5400000Y30000000D02*
X-5986421Y28873496D01*
X-5400000Y0D02*
X-5986421Y1126504D01*
X-5400000Y0D02*
X-4813579Y1126504D01*
D11*
X36285715Y35295181D02*
X36952381Y35295181D01*
X36952381Y35295181D02*
X36523810Y34295181D01*
X37809524Y35295181D02*
X37333334Y35295181D01*
X37333334Y35295181D02*
X37285715Y34818991D01*
X37285715Y34818991D02*
X37333334Y34866610D01*
X37333334Y34866610D02*
X37428572Y34914229D01*
X37428572Y34914229D02*
X37666667Y34914229D01*
X37666667Y34914229D02*
X37761905Y34866610D01*
X37761905Y34866610D02*
X37809524Y34818991D01*
X37809524Y34818991D02*
X37857143Y34723753D01*
X37857143Y34723753D02*
X37857143Y34485658D01*
X37857143Y34485658D02*
X37809524Y34390420D01*
X37809524Y34390420D02*
X37761905Y34342800D01*
X37761905Y34342800D02*
X37666667Y34295181D01*
X37666667Y34295181D02*
X37428572Y34295181D01*
X37428572Y34295181D02*
X37333334Y34342800D01*
X37333334Y34342800D02*
X37285715Y34390420D01*
X38285715Y34390420D02*
X38333334Y34342800D01*
X38333334Y34342800D02*
X38285715Y34295181D01*
X38285715Y34295181D02*
X38238096Y34342800D01*
X38238096Y34342800D02*
X38285715Y34390420D01*
X38285715Y34390420D02*
X38285715Y34295181D01*
X38952381Y35295181D02*
X39047619Y35295181D01*
X39047619Y35295181D02*
X39142857Y35247562D01*
X39142857Y35247562D02*
X39190476Y35199943D01*
X39190476Y35199943D02*
X39238095Y35104705D01*
X39238095Y35104705D02*
X39285714Y34914229D01*
X39285714Y34914229D02*
X39285714Y34676134D01*
X39285714Y34676134D02*
X39238095Y34485658D01*
X39238095Y34485658D02*
X39190476Y34390420D01*
X39190476Y34390420D02*
X39142857Y34342800D01*
X39142857Y34342800D02*
X39047619Y34295181D01*
X39047619Y34295181D02*
X38952381Y34295181D01*
X38952381Y34295181D02*
X38857143Y34342800D01*
X38857143Y34342800D02*
X38809524Y34390420D01*
X38809524Y34390420D02*
X38761905Y34485658D01*
X38761905Y34485658D02*
X38714286Y34676134D01*
X38714286Y34676134D02*
X38714286Y34914229D01*
X38714286Y34914229D02*
X38761905Y35104705D01*
X38761905Y35104705D02*
X38809524Y35199943D01*
X38809524Y35199943D02*
X38857143Y35247562D01*
X38857143Y35247562D02*
X38952381Y35295181D01*
X39904762Y35295181D02*
X40000000Y35295181D01*
X40000000Y35295181D02*
X40095238Y35247562D01*
X40095238Y35247562D02*
X40142857Y35199943D01*
X40142857Y35199943D02*
X40190476Y35104705D01*
X40190476Y35104705D02*
X40238095Y34914229D01*
X40238095Y34914229D02*
X40238095Y34676134D01*
X40238095Y34676134D02*
X40190476Y34485658D01*
X40190476Y34485658D02*
X40142857Y34390420D01*
X40142857Y34390420D02*
X40095238Y34342800D01*
X40095238Y34342800D02*
X40000000Y34295181D01*
X40000000Y34295181D02*
X39904762Y34295181D01*
X39904762Y34295181D02*
X39809524Y34342800D01*
X39809524Y34342800D02*
X39761905Y34390420D01*
X39761905Y34390420D02*
X39714286Y34485658D01*
X39714286Y34485658D02*
X39666667Y34676134D01*
X39666667Y34676134D02*
X39666667Y34914229D01*
X39666667Y34914229D02*
X39714286Y35104705D01*
X39714286Y35104705D02*
X39761905Y35199943D01*
X39761905Y35199943D02*
X39809524Y35247562D01*
X39809524Y35247562D02*
X39904762Y35295181D01*
X41428572Y34295181D02*
X41428572Y34961848D01*
X41428572Y34866610D02*
X41476191Y34914229D01*
X41476191Y34914229D02*
X41571429Y34961848D01*
X41571429Y34961848D02*
X41714286Y34961848D01*
X41714286Y34961848D02*
X41809524Y34914229D01*
X41809524Y34914229D02*
X41857143Y34818991D01*
X41857143Y34818991D02*
X41857143Y34295181D01*
X41857143Y34818991D02*
X41904762Y34914229D01*
X41904762Y34914229D02*
X42000000Y34961848D01*
X42000000Y34961848D02*
X42142857Y34961848D01*
X42142857Y34961848D02*
X42238096Y34914229D01*
X42238096Y34914229D02*
X42285715Y34818991D01*
X42285715Y34818991D02*
X42285715Y34295181D01*
X42761905Y34295181D02*
X42761905Y34961848D01*
X42761905Y34866610D02*
X42809524Y34914229D01*
X42809524Y34914229D02*
X42904762Y34961848D01*
X42904762Y34961848D02*
X43047619Y34961848D01*
X43047619Y34961848D02*
X43142857Y34914229D01*
X43142857Y34914229D02*
X43190476Y34818991D01*
X43190476Y34818991D02*
X43190476Y34295181D01*
X43190476Y34818991D02*
X43238095Y34914229D01*
X43238095Y34914229D02*
X43333333Y34961848D01*
X43333333Y34961848D02*
X43476190Y34961848D01*
X43476190Y34961848D02*
X43571429Y34914229D01*
X43571429Y34914229D02*
X43619048Y34818991D01*
X43619048Y34818991D02*
X43619048Y34295181D01*
D10*
X2500000Y28000000D02*
X2500000Y34186420D01*
X77500000Y34186420D02*
X77500000Y28000000D01*
X2500000Y33600000D02*
X77500000Y33600000D01*
X2500000Y33600000D02*
X3626504Y34186421D01*
X2500000Y33600000D02*
X3626504Y33013579D01*
X77500000Y33600000D02*
X76373496Y33013579D01*
X77500000Y33600000D02*
X76373496Y34186421D01*
D11*
X-3499943Y11333335D02*
X-3547562Y11380954D01*
X-3547562Y11380954D02*
X-3595181Y11476192D01*
X-3595181Y11476192D02*
X-3595181Y11714287D01*
X-3595181Y11714287D02*
X-3547562Y11809525D01*
X-3547562Y11809525D02*
X-3499943Y11857144D01*
X-3499943Y11857144D02*
X-3404705Y11904763D01*
X-3404705Y11904763D02*
X-3309467Y11904763D01*
X-3309467Y11904763D02*
X-3166610Y11857144D01*
X-3166610Y11857144D02*
X-2595181Y11285716D01*
X-2595181Y11285716D02*
X-2595181Y11904763D01*
X-3595181Y12809525D02*
X-3595181Y12333335D01*
X-3595181Y12333335D02*
X-3118991Y12285716D01*
X-3118991Y12285716D02*
X-3166610Y12333335D01*
X-3166610Y12333335D02*
X-3214229Y12428573D01*
X-3214229Y12428573D02*
X-3214229Y12666668D01*
X-3214229Y12666668D02*
X-3166610Y12761906D01*
X-3166610Y12761906D02*
X-3118991Y12809525D01*
X-3118991Y12809525D02*
X-3023753Y12857144D01*
X-3023753Y12857144D02*
X-2785658Y12857144D01*
X-2785658Y12857144D02*
X-2690420Y12809525D01*
X-2690420Y12809525D02*
X-2642800Y12761906D01*
X-2642800Y12761906D02*
X-2595181Y12666668D01*
X-2595181Y12666668D02*
X-2595181Y12428573D01*
X-2595181Y12428573D02*
X-2642800Y12333335D01*
X-2642800Y12333335D02*
X-2690420Y12285716D01*
X-2690420Y13285716D02*
X-2642800Y13333335D01*
X-2642800Y13333335D02*
X-2595181Y13285716D01*
X-2595181Y13285716D02*
X-2642800Y13238097D01*
X-2642800Y13238097D02*
X-2690420Y13285716D01*
X-2690420Y13285716D02*
X-2595181Y13285716D01*
X-3595181Y13952382D02*
X-3595181Y14047620D01*
X-3595181Y14047620D02*
X-3547562Y14142858D01*
X-3547562Y14142858D02*
X-3499943Y14190477D01*
X-3499943Y14190477D02*
X-3404705Y14238096D01*
X-3404705Y14238096D02*
X-3214229Y14285715D01*
X-3214229Y14285715D02*
X-2976134Y14285715D01*
X-2976134Y14285715D02*
X-2785658Y14238096D01*
X-2785658Y14238096D02*
X-2690420Y14190477D01*
X-2690420Y14190477D02*
X-2642800Y14142858D01*
X-2642800Y14142858D02*
X-2595181Y14047620D01*
X-2595181Y14047620D02*
X-2595181Y13952382D01*
X-2595181Y13952382D02*
X-2642800Y13857144D01*
X-2642800Y13857144D02*
X-2690420Y13809525D01*
X-2690420Y13809525D02*
X-2785658Y13761906D01*
X-2785658Y13761906D02*
X-2976134Y13714287D01*
X-2976134Y13714287D02*
X-3214229Y13714287D01*
X-3214229Y13714287D02*
X-3404705Y13761906D01*
X-3404705Y13761906D02*
X-3499943Y13809525D01*
X-3499943Y13809525D02*
X-3547562Y13857144D01*
X-3547562Y13857144D02*
X-3595181Y13952382D01*
X-3595181Y14904763D02*
X-3595181Y15000001D01*
X-3595181Y15000001D02*
X-3547562Y15095239D01*
X-3547562Y15095239D02*
X-3499943Y15142858D01*
X-3499943Y15142858D02*
X-3404705Y15190477D01*
X-3404705Y15190477D02*
X-3214229Y15238096D01*
X-3214229Y15238096D02*
X-2976134Y15238096D01*
X-2976134Y15238096D02*
X-2785658Y15190477D01*
X-2785658Y15190477D02*
X-2690420Y15142858D01*
X-2690420Y15142858D02*
X-2642800Y15095239D01*
X-2642800Y15095239D02*
X-2595181Y15000001D01*
X-2595181Y15000001D02*
X-2595181Y14904763D01*
X-2595181Y14904763D02*
X-2642800Y14809525D01*
X-2642800Y14809525D02*
X-2690420Y14761906D01*
X-2690420Y14761906D02*
X-2785658Y14714287D01*
X-2785658Y14714287D02*
X-2976134Y14666668D01*
X-2976134Y14666668D02*
X-3214229Y14666668D01*
X-3214229Y14666668D02*
X-3404705Y14714287D01*
X-3404705Y14714287D02*
X-3499943Y14761906D01*
X-3499943Y14761906D02*
X-3547562Y14809525D01*
X-3547562Y14809525D02*
X-3595181Y14904763D01*
X-2595181Y16428573D02*
X-3261848Y16428573D01*
X-3166610Y16428573D02*
X-3214229Y16476192D01*
X-3214229Y16476192D02*
X-3261848Y16571430D01*
X-3261848Y16571430D02*
X-3261848Y16714287D01*
X-3261848Y16714287D02*
X-3214229Y16809525D01*
X-3214229Y16809525D02*
X-3118991Y16857144D01*
X-3118991Y16857144D02*
X-2595181Y16857144D01*
X-3118991Y16857144D02*
X-3214229Y16904763D01*
X-3214229Y16904763D02*
X-3261848Y17000001D01*
X-3261848Y17000001D02*
X-3261848Y17142858D01*
X-3261848Y17142858D02*
X-3214229Y17238097D01*
X-3214229Y17238097D02*
X-3118991Y17285716D01*
X-3118991Y17285716D02*
X-2595181Y17285716D01*
X-2595181Y17761906D02*
X-3261848Y17761906D01*
X-3166610Y17761906D02*
X-3214229Y17809525D01*
X-3214229Y17809525D02*
X-3261848Y17904763D01*
X-3261848Y17904763D02*
X-3261848Y18047620D01*
X-3261848Y18047620D02*
X-3214229Y18142858D01*
X-3214229Y18142858D02*
X-3118991Y18190477D01*
X-3118991Y18190477D02*
X-2595181Y18190477D01*
X-3118991Y18190477D02*
X-3214229Y18238096D01*
X-3214229Y18238096D02*
X-3261848Y18333334D01*
X-3261848Y18333334D02*
X-3261848Y18476191D01*
X-3261848Y18476191D02*
X-3214229Y18571430D01*
X-3214229Y18571430D02*
X-3118991Y18619049D01*
X-3118991Y18619049D02*
X-2595181Y18619049D01*
D10*
X2000000Y2500000D02*
X-2486420Y2500000D01*
X-2486420Y27500000D02*
X2000000Y27500000D01*
X-1900000Y2500000D02*
X-1900000Y27500000D01*
X-1900000Y2500000D02*
X-2486421Y3626504D01*
X-1900000Y2500000D02*
X-1313579Y3626504D01*
X-1900000Y27500000D02*
X-1313579Y26373496D01*
X-1900000Y27500000D02*
X-2486421Y26373496D01*
D12*
X36523810Y39919210D02*
X36428572Y39966829D01*
X36428572Y39966829D02*
X36380953Y40014448D01*
X36380953Y40014448D02*
X36333334Y40109686D01*
X36333334Y40109686D02*
X36333334Y40157305D01*
X36333334Y40157305D02*
X36380953Y40252543D01*
X36380953Y40252543D02*
X36428572Y40300162D01*
X36428572Y40300162D02*
X36523810Y40347781D01*
X36523810Y40347781D02*
X36714286Y40347781D01*
X36714286Y40347781D02*
X36809524Y40300162D01*
X36809524Y40300162D02*
X36857143Y40252543D01*
X36857143Y40252543D02*
X36904762Y40157305D01*
X36904762Y40157305D02*
X36904762Y40109686D01*
X36904762Y40109686D02*
X36857143Y40014448D01*
X36857143Y40014448D02*
X36809524Y39966829D01*
X36809524Y39966829D02*
X36714286Y39919210D01*
X36714286Y39919210D02*
X36523810Y39919210D01*
X36523810Y39919210D02*
X36428572Y39871591D01*
X36428572Y39871591D02*
X36380953Y39823972D01*
X36380953Y39823972D02*
X36333334Y39728734D01*
X36333334Y39728734D02*
X36333334Y39538258D01*
X36333334Y39538258D02*
X36380953Y39443020D01*
X36380953Y39443020D02*
X36428572Y39395400D01*
X36428572Y39395400D02*
X36523810Y39347781D01*
X36523810Y39347781D02*
X36714286Y39347781D01*
X36714286Y39347781D02*
X36809524Y39395400D01*
X36809524Y39395400D02*
X36857143Y39443020D01*
X36857143Y39443020D02*
X36904762Y39538258D01*
X36904762Y39538258D02*
X36904762Y39728734D01*
X36904762Y39728734D02*
X36857143Y39823972D01*
X36857143Y39823972D02*
X36809524Y39871591D01*
X36809524Y39871591D02*
X36714286Y39919210D01*
X37523810Y40347781D02*
X37619048Y40347781D01*
X37619048Y40347781D02*
X37714286Y40300162D01*
X37714286Y40300162D02*
X37761905Y40252543D01*
X37761905Y40252543D02*
X37809524Y40157305D01*
X37809524Y40157305D02*
X37857143Y39966829D01*
X37857143Y39966829D02*
X37857143Y39728734D01*
X37857143Y39728734D02*
X37809524Y39538258D01*
X37809524Y39538258D02*
X37761905Y39443020D01*
X37761905Y39443020D02*
X37714286Y39395400D01*
X37714286Y39395400D02*
X37619048Y39347781D01*
X37619048Y39347781D02*
X37523810Y39347781D01*
X37523810Y39347781D02*
X37428572Y39395400D01*
X37428572Y39395400D02*
X37380953Y39443020D01*
X37380953Y39443020D02*
X37333334Y39538258D01*
X37333334Y39538258D02*
X37285715Y39728734D01*
X37285715Y39728734D02*
X37285715Y39966829D01*
X37285715Y39966829D02*
X37333334Y40157305D01*
X37333334Y40157305D02*
X37380953Y40252543D01*
X37380953Y40252543D02*
X37428572Y40300162D01*
X37428572Y40300162D02*
X37523810Y40347781D01*
X38285715Y39443020D02*
X38333334Y39395400D01*
X38333334Y39395400D02*
X38285715Y39347781D01*
X38285715Y39347781D02*
X38238096Y39395400D01*
X38238096Y39395400D02*
X38285715Y39443020D01*
X38285715Y39443020D02*
X38285715Y39347781D01*
X38952381Y40347781D02*
X39047619Y40347781D01*
X39047619Y40347781D02*
X39142857Y40300162D01*
X39142857Y40300162D02*
X39190476Y40252543D01*
X39190476Y40252543D02*
X39238095Y40157305D01*
X39238095Y40157305D02*
X39285714Y39966829D01*
X39285714Y39966829D02*
X39285714Y39728734D01*
X39285714Y39728734D02*
X39238095Y39538258D01*
X39238095Y39538258D02*
X39190476Y39443020D01*
X39190476Y39443020D02*
X39142857Y39395400D01*
X39142857Y39395400D02*
X39047619Y39347781D01*
X39047619Y39347781D02*
X38952381Y39347781D01*
X38952381Y39347781D02*
X38857143Y39395400D01*
X38857143Y39395400D02*
X38809524Y39443020D01*
X38809524Y39443020D02*
X38761905Y39538258D01*
X38761905Y39538258D02*
X38714286Y39728734D01*
X38714286Y39728734D02*
X38714286Y39966829D01*
X38714286Y39966829D02*
X38761905Y40157305D01*
X38761905Y40157305D02*
X38809524Y40252543D01*
X38809524Y40252543D02*
X38857143Y40300162D01*
X38857143Y40300162D02*
X38952381Y40347781D01*
X39904762Y40347781D02*
X40000000Y40347781D01*
X40000000Y40347781D02*
X40095238Y40300162D01*
X40095238Y40300162D02*
X40142857Y40252543D01*
X40142857Y40252543D02*
X40190476Y40157305D01*
X40190476Y40157305D02*
X40238095Y39966829D01*
X40238095Y39966829D02*
X40238095Y39728734D01*
X40238095Y39728734D02*
X40190476Y39538258D01*
X40190476Y39538258D02*
X40142857Y39443020D01*
X40142857Y39443020D02*
X40095238Y39395400D01*
X40095238Y39395400D02*
X40000000Y39347781D01*
X40000000Y39347781D02*
X39904762Y39347781D01*
X39904762Y39347781D02*
X39809524Y39395400D01*
X39809524Y39395400D02*
X39761905Y39443020D01*
X39761905Y39443020D02*
X39714286Y39538258D01*
X39714286Y39538258D02*
X39666667Y39728734D01*
X39666667Y39728734D02*
X39666667Y39966829D01*
X39666667Y39966829D02*
X39714286Y40157305D01*
X39714286Y40157305D02*
X39761905Y40252543D01*
X39761905Y40252543D02*
X39809524Y40300162D01*
X39809524Y40300162D02*
X39904762Y40347781D01*
X41428572Y39347781D02*
X41428572Y40014448D01*
X41428572Y39919210D02*
X41476191Y39966829D01*
X41476191Y39966829D02*
X41571429Y40014448D01*
X41571429Y40014448D02*
X41714286Y40014448D01*
X41714286Y40014448D02*
X41809524Y39966829D01*
X41809524Y39966829D02*
X41857143Y39871591D01*
X41857143Y39871591D02*
X41857143Y39347781D01*
X41857143Y39871591D02*
X41904762Y39966829D01*
X41904762Y39966829D02*
X42000000Y40014448D01*
X42000000Y40014448D02*
X42142857Y40014448D01*
X42142857Y40014448D02*
X42238096Y39966829D01*
X42238096Y39966829D02*
X42285715Y39871591D01*
X42285715Y39871591D02*
X42285715Y39347781D01*
X42761905Y39347781D02*
X42761905Y40014448D01*
X42761905Y39919210D02*
X42809524Y39966829D01*
X42809524Y39966829D02*
X42904762Y40014448D01*
X42904762Y40014448D02*
X43047619Y40014448D01*
X43047619Y40014448D02*
X43142857Y39966829D01*
X43142857Y39966829D02*
X43190476Y39871591D01*
X43190476Y39871591D02*
X43190476Y39347781D01*
X43190476Y39871591D02*
X43238095Y39966829D01*
X43238095Y39966829D02*
X43333333Y40014448D01*
X43333333Y40014448D02*
X43476190Y40014448D01*
X43476190Y40014448D02*
X43571429Y39966829D01*
X43571429Y39966829D02*
X43619048Y39871591D01*
X43619048Y39871591D02*
X43619048Y39347781D01*
D10*
X0Y28500000D02*
X0Y39186420D01*
X80000000Y39186420D02*
X80000000Y28500000D01*
X0Y38600000D02*
X80000000Y38600000D01*
X0Y38600000D02*
X1126504Y39186421D01*
X0Y38600000D02*
X1126504Y38013579D01*
X80000000Y38600000D02*
X78873496Y38013579D01*
X80000000Y38600000D02*
X78873496Y39186421D01*
M02*
